<svg width="26" height="26" viewBox="0 0 30 30" fill="none" xmlns="http://www.w3.org/2000/svg">
    <path d="M27.4365 2.55854C24.151 -0.813329 18.8986 -0.812596 15.6139 2.5602L1.83768 17.01C-0.653336 19.6844 -0.60573 23.9705 1.94402 26.5833C4.45181 29.1531 8.45694 29.1531 10.9647 26.5833L23.4393 13.4988C25.0611 11.7978 25.0611 9.03987 23.4393 7.33887C21.8176 5.63787 19.1882 5.63787 17.5665 7.33887L5.63427 19.8544C5.21808 20.3064 5.23003 21.0267 5.66097 21.4632C6.08135 21.8891 6.74777 21.8891 7.16815 21.4632L19.1003 8.94767C19.8916 8.15261 21.1475 8.18094 21.9055 9.01087C22.6405 9.81574 22.6405 11.0851 21.9055 11.89L9.43092 24.9744C7.74571 26.7169 5.03281 26.6965 3.37156 24.9289C1.72709 23.1791 1.72709 20.3685 3.37156 18.6188L17.1478 4.169C19.6017 1.5942 23.5809 1.59347 26.0357 4.16727C28.4905 6.74107 28.4912 10.9149 26.0373 13.4897L12.261 27.9395C11.806 28.3482 11.753 29.0665 12.1427 29.5437C12.5324 30.021 13.2172 30.0766 13.6722 29.6679C13.7146 29.6297 13.7542 29.5883 13.7905 29.5437L27.5668 15.0939C30.831 11.5947 30.7727 5.98234 27.4365 2.55854Z" fill="white" />
</svg>