<svg width="30" height="26" viewBox="0 0 30 26" fill="none" xmlns="http://www.w3.org/2000/svg">
    <path d="M28.2134 10.2671L4.0086 0.223564C2.9889 -0.199601 1.83688 -0.0134481 1.00221 0.709131C0.167544 1.43183 -0.181557 2.54534 0.0912554 3.61509L2.24569 12.0639H12.7941C13.2795 12.0639 13.6731 12.4574 13.6731 12.9428C13.6731 13.4282 13.2796 13.8218 12.7941 13.8218H2.24569L0.0912554 22.2705C-0.181557 23.3403 0.167486 24.4538 1.00221 25.1764C1.83858 25.9005 2.99071 26.0844 4.00866 25.662L28.2134 15.6185C29.3154 15.1612 30 14.136 30 12.9428C30 11.7497 29.3154 10.7243 28.2134 10.2671Z" fill="white" />
</svg>